<svg width="17" height="18" viewBox="0 0 17 18" fill="none" xmlns="http://www.w3.org/2000/svg">
<path d="M11.1739 9.48641L7.73641 12.9239C7.64026 13.0202 7.51771 13.0857 7.38427 13.1123C7.25084 13.1389 7.11252 13.1253 6.98683 13.0732C6.86114 13.0211 6.75373 12.9329 6.67819 12.8197C6.60266 12.7066 6.56239 12.5736 6.5625 12.4375V9.6875H1.0625C0.880164 9.6875 0.705295 9.61507 0.576364 9.48614C0.447433 9.35721 0.375 9.18234 0.375 9C0.375 8.81766 0.447433 8.6428 0.576364 8.51386C0.705295 8.38493 0.880164 8.3125 1.0625 8.3125H6.5625V5.5625C6.56239 5.42645 6.60266 5.29342 6.67819 5.18026C6.75373 5.0671 6.86114 4.9789 6.98683 4.92682C7.11252 4.87474 7.25084 4.86113 7.38427 4.8877C7.51771 4.91427 7.64026 4.97984 7.73641 5.07609L11.1739 8.51359C11.2378 8.57744 11.2885 8.65327 11.3231 8.73673C11.3577 8.82019 11.3755 8.90965 11.3755 9C11.3755 9.09035 11.3577 9.17981 11.3231 9.26327C11.2885 9.34673 11.2378 9.42256 11.1739 9.48641ZM15.5 0.75H10.6875C10.5052 0.75 10.3303 0.822433 10.2014 0.951364C10.0724 1.0803 10 1.25516 10 1.4375C10 1.61984 10.0724 1.7947 10.2014 1.92364C10.3303 2.05257 10.5052 2.125 10.6875 2.125H15.5V15.875H10.6875C10.5052 15.875 10.3303 15.9474 10.2014 16.0764C10.0724 16.2053 10 16.3802 10 16.5625C10 16.7448 10.0724 16.9197 10.2014 17.0486C10.3303 17.1776 10.5052 17.25 10.6875 17.25H15.5C15.8647 17.25 16.2144 17.1051 16.4723 16.8473C16.7301 16.5894 16.875 16.2397 16.875 15.875V2.125C16.875 1.76033 16.7301 1.41059 16.4723 1.15273C16.2144 0.894866 15.8647 0.75 15.5 0.75Z" fill="#023E84"/>
</svg>
