<svg width="18" height="18" viewBox="0 0 18 18" fill="none" xmlns="http://www.w3.org/2000/svg">
<path d="M9 0.0625C7.23233 0.0625 5.50436 0.586675 4.0346 1.56874C2.56483 2.55081 1.41929 3.94665 0.742831 5.57977C0.0663725 7.21288 -0.11062 9.00992 0.234236 10.7436C0.579091 12.4773 1.43031 14.0698 2.68024 15.3198C3.93017 16.5697 5.52268 17.4209 7.25638 17.7658C8.99009 18.1106 10.7871 17.9336 12.4202 17.2572C14.0534 16.5807 15.4492 15.4352 16.4313 13.9654C17.4133 12.4956 17.9375 10.7677 17.9375 9C17.935 6.6304 16.9926 4.35856 15.317 2.683C13.6414 1.00743 11.3696 0.0650023 9 0.0625ZM9 16.5625C7.50428 16.5625 6.04215 16.119 4.7985 15.288C3.55486 14.457 2.58555 13.2759 2.01316 11.894C1.44078 10.5122 1.29101 8.99161 1.58282 7.52463C1.87462 6.05765 2.59487 4.71014 3.65251 3.65251C4.71014 2.59487 6.05765 1.87461 7.52463 1.58281C8.99162 1.29101 10.5122 1.44077 11.894 2.01316C13.2759 2.58555 14.457 3.55485 15.288 4.7985C16.119 6.04215 16.5625 7.50428 16.5625 9C16.5602 11.005 15.7627 12.9272 14.345 14.345C12.9272 15.7627 11.005 16.5602 9 16.5625ZM10.9405 9.6875L12.0198 12.3988C12.0823 12.5553 12.1055 12.7246 12.0874 12.8921C12.0693 13.0595 12.0105 13.22 11.916 13.3595C11.8216 13.499 11.6944 13.6132 11.5456 13.6921C11.3968 13.7711 11.2309 13.8124 11.0625 13.8125H6.9375C6.76917 13.8124 6.60342 13.7711 6.45473 13.6921C6.30605 13.6132 6.17894 13.4991 6.08451 13.3597C5.99008 13.2204 5.9312 13.06 5.91301 12.8927C5.89482 12.7253 5.91788 12.5561 5.98016 12.3997L7.05954 9.6875C6.56091 9.28594 6.19914 8.73958 6.02411 8.12375C5.84909 7.50792 5.86942 6.85296 6.08232 6.24918C6.29521 5.6454 6.69018 5.12253 7.21276 4.75268C7.73534 4.38283 8.35979 4.18421 9 4.18421C9.64022 4.18421 10.2647 4.38283 10.7872 4.75268C11.3098 5.12253 11.7048 5.6454 11.9177 6.24918C12.1306 6.85296 12.1509 7.50792 11.9759 8.12375C11.8009 8.73958 11.4391 9.28594 10.9405 9.6875Z" fill="#023E84"/>
</svg>
