<svg width="18" height="18" viewBox="0 0 18 18" fill="none" xmlns="http://www.w3.org/2000/svg">
<path d="M17.8455 16.9063C17.7852 17.0108 17.6984 17.0976 17.5938 17.1579C17.4893 17.2183 17.3707 17.25 17.25 17.25H0.749997C0.629375 17.2499 0.510909 17.218 0.406494 17.1576C0.302079 17.0972 0.215391 17.0104 0.155133 16.9059C0.0948759 16.8015 0.063171 16.6829 0.0632019 16.5623C0.0632329 16.4417 0.0949987 16.3232 0.15531 16.2188C1.46414 13.956 3.48109 12.3335 5.83492 11.5644C4.67061 10.8713 3.76601 9.8151 3.26005 8.55811C2.75408 7.30111 2.67473 5.91279 3.03416 4.60633C3.3936 3.29987 4.17196 2.14751 5.24971 1.32624C6.32745 0.504958 7.64499 0.0601654 9 0.0601654C10.355 0.0601654 11.6725 0.504958 12.7503 1.32624C13.828 2.14751 14.6064 3.29987 14.9658 4.60633C15.3253 5.91279 15.2459 7.30111 14.7399 8.55811C14.234 9.8151 13.3294 10.8713 12.1651 11.5644C14.5189 12.3335 16.5359 13.956 17.8447 16.2188C17.9052 16.3232 17.9371 16.4417 17.9372 16.5624C17.9374 16.6831 17.9058 16.8017 17.8455 16.9063Z" fill="#023E84"/>
</svg>
